<?xml version="1.0" encoding="UTF-8" standalone="no"?>
<!DOCTYPE svg PUBLIC "-//W3C//DTD SVG 1.1//EN" "http://www.w3.org/Graphics/SVG/1.1/DTD/svg11.dtd">
<svg width="100%" height="100%" viewBox="0 0 60 60" version="1.1" xmlns="http://www.w3.org/2000/svg" xmlns:xlink="http://www.w3.org/1999/xlink" xml:space="preserve" xmlns:serif="http://www.serif.com/" style="fill-rule:evenodd;clip-rule:evenodd;stroke-linejoin:round;stroke-miterlimit:2;">
    <g transform="matrix(1,0,0,1,-1,0)">
        <path d="M26.799,10.299C22.862,10.999 19.307,12.852 16.488,15.488C12.597,19.127 10.139,24.26 9.947,30C9.749,35.885 12.013,41.267 15.744,45.256C19.566,49.345 24.97,51.904 31,52.106C37.176,52.313 42.815,49.916 47.001,46.001C51.286,41.994 53.948,36.321 54.16,30C54.376,23.534 51.845,17.638 47.746,13.254C43.555,8.772 37.612,6.009 31,5.787C28.675,5.787 26.787,7.675 26.787,10C26.787,10.101 26.791,10.201 26.799,10.299ZM26.828,10.584C23.085,11.518 19.777,13.513 17.233,16.233C13.871,19.829 11.875,24.696 12.053,30C12.226,35.159 14.48,39.752 17.978,43.022C21.377,46.201 25.987,48.062 31,47.894C35.868,47.73 40.191,45.578 43.278,42.278C46.272,39.076 47.999,34.723 47.84,30C47.687,25.422 45.636,21.369 42.533,18.467C39.528,15.657 35.433,14.064 31,14.213C28.873,14.213 27.112,12.633 26.828,10.584Z" style="fill:rgb(120,120,120);"/>
    </g>
</svg>
